<svg xmlns="http://www.w3.org/2000/svg" viewBox="10 8 172 176"><path d="M96 14 L168 40 V96 C168 140 132 166 96 178 C60 166 24 140 24 96 V40 Z" fill="#FFD23F" stroke="#2B2D52" stroke-width="6" stroke-linejoin="round"/>
<svg x="42.2" y="44" width="107.5" height="102.1" viewBox="0 0 200 190"><g class="em">
  <g class="em-star"><path d="M100.0 4.0 L111.2 26.6 L136.1 30.3 L118.1 47.9 L122.3 72.7 L100.0 61.0 L77.7 72.7 L81.9 47.9 L63.9 30.3 L88.8 26.6 Z" fill="#FFD23F" stroke="#2B2D52" stroke-width="6" stroke-linejoin="round"/>
    <circle cx="90" cy="39" r="3.6" fill="#2B2D52"/><circle cx="110" cy="39" r="3.6" fill="#2B2D52"/>
    <path d="M90 47 Q100 56 110 47" fill="none" stroke="#2B2D52" stroke-width="4" stroke-linecap="round"/></g>
  <path d="M10 148 Q56 124 100 160 Q144 124 190 148 L190 160 Q144 136 100 172 Q56 136 10 160 Z" fill="#FF5C8A" stroke="#2B2D52" stroke-width="6" stroke-linejoin="round"/>
  <path d="M100 152 Q60 128 20 140 L20 76 Q60 62 100 86 Z" fill="#FFFFFF" stroke="#2B2D52" stroke-width="6" stroke-linejoin="round"/>
  <path d="M100 152 Q140 128 180 140 L180 76 Q140 62 100 86 Z" fill="#FFF6D6" stroke="#2B2D52" stroke-width="6" stroke-linejoin="round"/>
  <path d="M52 92 h12 v11 h11 v12 H64 v11 H52 v-11 H41 v-12 h11 z" fill="#4DB8FF" stroke="#2B2D52" stroke-width="3.5" stroke-linejoin="round"/>
  <circle cx="138" cy="100" r="9" fill="#FF5C8A" stroke="#2B2D52" stroke-width="3.5"/>
  <circle cx="156" cy="116" r="9" fill="#3DDC97" stroke="#2B2D52" stroke-width="3.5"/>
</g></svg>
<circle cx="96" cy="150" r="22" fill="#2E5BFF" stroke="#2B2D52" stroke-width="5"/>
<path d="M89 139 h10 a8.5 8.5 0 0 1 0 17 h-4.5 v8 h-5.5 z M94.5 144 v7 h4 a3.5 3.5 0 0 0 0 -7 z" fill="#fff" fill-rule="evenodd"/></svg>